<?xml version="1.0" encoding="utf-8"?>
<!-- Generator: Adobe Illustrator 26.0.1, SVG Export Plug-In . SVG Version: 6.00 Build 0)  -->
<svg version="1.1" id="Layer_1" xmlns="http://www.w3.org/2000/svg" xmlns:xlink="http://www.w3.org/1999/xlink" x="0px" y="0px"
	 viewBox="0 0 1800 792" style="enable-background:new 0 0 1800 792;" xml:space="preserve">
<path d="M133.36,476.27c0-7.59,0-14.96,0-23.1c10.04-1.25,20-3.27,30.03-3.6c29.75-1,59.59-2.8,89.27-1.56
	c32.83,1.37,65.51,5.95,98.29,8.75c31.8,2.71,63.6,5.92,95.47,7.12c44.91,1.69,89.76-1.76,134.57-4.6
	c49.62-3.15,99.22-7.07,148.9-9.01c44.05-1.72,88.2-1.42,132.3-1.58c29.62-0.1,59.26,0.24,88.88,0.96
	c38.25,0.93,76.48,2.53,114.72,3.68c27.77,0.83,55.55,1.56,83.34,2.03c42.27,0.71,84.56,2.11,126.82,1.45
	c45.22-0.7,90.43-3.05,135.6-5.43c42.76-2.25,85.48-3.24,128.2-0.2c25.04,1.78,49.99,4.71,75.04,6.36
	c34.07,2.25,68.16,2.41,102.12-2.05c3.95-0.52,7.93-0.9,11.9-1.27c1.3-0.12,2.62-0.02,4.23-0.02c0,7.27,0,14.47,0,22.08
	C1200.02,476.27,667,476.27,133.36,476.27z"/>
</svg>
